<svg width="100" height="100" viewBox="0 0 100 100" fill="none" xmlns="http://www.w3.org/2000/svg">
    <defs>
        <linearGradient id="bg-grad" x1="0%" y1="0%" x2="100%" y2="100%">
            <stop offset="0%" style="stop-color:#00b8d4"/>
            <stop offset="100%" style="stop-color:#9c27b0"/>
        </linearGradient>
    </defs>
    <rect width="100" height="100" rx="20" fill="url(#bg-grad)"/>
    <g transform="translate(12.5, 12.5) scale(3.125)" stroke="white" stroke-linecap="round" stroke-linejoin="round" style="filter: drop-shadow(0px 1px 1px rgba(0, 0, 0, 0.3));">
        <g stroke-width="1.5">
            <path d="M15.5 13a3.5 3.5 0 0 0 -3.5 3.5v1a3.5 3.5 0 0 0 7 0v-1.8" />
            <path d="M8.5 13a3.5 3.5 0 0 1 3.5 3.5v1a3.5 3.5 0 0 1 -7 0v-1.8" />
            <path d="M12 12a3.5 3.5 0 0 0 -3.5 -3.5h-1a3.5 3.5 0 0 0 0 7h1.8" />
            <path d="M12 12a3.5 3.5 0 0 1 3.5 -3.5h1a3.5 3.5 0 0 1 0 7h-1.8" />
            <path d="M12 12v-2a3.5 3.5 0 0 0 -3.5 -3.5" />
            <path d="M12 12v-2a3.5 3.5 0 0 1 3.5 -3.5" />
        </g>
    </g>
</svg>